<?xml version="1.0" encoding="iso-8859-1"?>
<!-- Generator: Adobe Illustrator 19.0.0, SVG Export Plug-In . SVG Version: 6.00 Build 0)  -->
<svg version="1.1" id="Capa_1" xmlns="http://www.w3.org/2000/svg" xmlns:xlink="http://www.w3.org/1999/xlink" x="0px" y="0px"
	 viewBox="0 0 512 512" style="enable-background:new 0 0 512 512;" xml:space="preserve"  fill="grey">
<g>
	<g>
		<path d="M256.001,147.362c-59.903,0-108.638,48.735-108.638,108.638c0,59.903,48.735,108.638,108.638,108.638
			c59.903,0,108.638-48.736,108.638-108.638S315.904,147.362,256.001,147.362z M256.001,347.325
			c-50.357,0-91.325-40.969-91.325-91.325s40.968-91.325,91.325-91.325c50.358,0,91.325,40.968,91.325,91.325
			C347.326,306.357,306.358,347.325,256.001,347.325z"/>
	</g>
</g>
<g>
	<g>
		<path d="M256.001,36.546c-121.008,0-219.454,98.446-219.454,219.454s98.447,219.454,219.454,219.454
			s219.453-98.446,219.453-219.454S377.007,36.546,256.001,36.546z M256.001,458.141c-111.461,0-202.141-90.681-202.141-202.141
			S144.54,53.858,256.001,53.858s202.14,90.68,202.14,202.141S367.461,458.141,256.001,458.141z"/>
	</g>
</g>
<g>
	<g>
		<path d="M503.344,247.343h-82.642c-4.78,0-8.656,3.875-8.656,8.656s3.876,8.656,8.656,8.656h82.642
			c4.78,0,8.656-3.876,8.656-8.656S508.124,247.343,503.344,247.343z"/>
	</g>
</g>
<g>
	<g>
		<path d="M91.298,247.343H8.656c-4.78,0-8.656,3.875-8.656,8.656s3.876,8.656,8.656,8.656h82.642c4.78,0,8.656-3.876,8.656-8.656
			S96.079,247.343,91.298,247.343z"/>
	</g>
</g>
<g>
	<g>
		<path d="M255.999,0c-4.78,0-8.656,3.876-8.656,8.656v82.642c0,4.78,3.876,8.656,8.656,8.656c4.781,0,8.656-3.876,8.656-8.656
			V8.656C264.656,3.876,260.78,0,255.999,0z"/>
	</g>
</g>
<g>
	<g>
		<path d="M255.999,412.044c-4.78,0-8.656,3.876-8.656,8.656v82.643c0,4.78,3.876,8.656,8.656,8.656
			c4.781,0,8.656-3.876,8.656-8.656v-82.643C264.656,415.92,260.78,412.044,255.999,412.044z"/>
	</g>
</g>
<g>
</g>
<g>
</g>
<g>
</g>
<g>
</g>
<g>
</g>
<g>
</g>
<g>
</g>
<g>
</g>
<g>
</g>
<g>
</g>
<g>
</g>
<g>
</g>
<g>
</g>
<g>
</g>
<g>
</g>
</svg>
