<svg  fill="grey" id="Layer_1" enable-background="new 0 0 512 512" height="512" viewBox="0 0 512 512" width="512" xmlns="http://www.w3.org/2000/svg"><g><path d="m195 270c74.439 0 135-60.561 135-135s-60.561-135-135-135-135 60.561-135 135 60.561 135 135 135zm0-230c52.383 0 95 42.617 95 95s-42.617 95-95 95-95-42.617-95-95 42.617-95 95-95z"/><path d="m185 310c-100.355 0-185 81.645-185 182 0 11.046 8.954 20 20 20s20-8.954 20-20c0-78.299 66.701-142 145-142 11.046 0 20-8.954 20-20s-8.954-20-20-20z"/><path d="m410.987 356h-13.987v-21c0-11.046-8.954-20-20-20s-20 8.954-20 20v41c0 11.046 8.954 20 20 20h33.987c11.046 0 20-8.954 20-20s-8.954-20-20-20z"/><path d="m377 241c-74.439 0-135 60.561-135 135s60.561 135 135 135 135-60.561 135-135-60.561-135-135-135zm0 230c-52.383 0-95-42.617-95-95s42.617-95 95-95 95 42.617 95 95-42.617 95-95 95z"/></g></svg>