<?xml version="1.0"?>
<svg  fill="grey" xmlns="http://www.w3.org/2000/svg" viewBox="0 0 64 64" width="512" height="512"><g id="time"><path d="M49,48h-.413a7.029,7.029,0,0,0,3.05-3.79q.922-.62,1.7-1.244A2,2,0,0,0,54.9,41.6,23,23,0,1,0,16.555,30H10a6,6,0,1,0,0,12h2.54a5.978,5.978,0,0,0-.009,8H8A6,6,0,1,0,8,62H61a1,1,0,0,0,1-1A13.015,13.015,0,0,0,49,48Zm-1.167,2L46.9,56H43.1l-.931-6ZM50,42a5,5,0,0,1-10,0V36.618l3.116-1.558L50,36.781ZM37,41V40h1v1ZM22.767,30A16.993,16.993,0,1,1,54.4,32.189,7.03,7.03,0,0,0,48,28H42a6.951,6.951,0,0,0-4.877,2ZM52.588,41H52V40h1v.641C52.867,40.763,52.728,40.882,52.588,41ZM38.553,35.1A1,1,0,0,0,38,36v2h-.456A3.943,3.943,0,0,1,37,36V35a5.023,5.023,0,0,1,5-5h6a5.031,5.031,0,0,1,5,5v.586l-1,1V36a1,1,0,0,0-.757-.97l-8-2a1,1,0,0,0-.69.075ZM18,25A21,21,0,1,1,54.689,38.939a2,2,0,0,0-1.313-.9l1.331-1.331A1,1,0,0,0,55,36v-.789A18.787,18.787,0,0,0,58,25a19,19,0,1,0-37.324,5H18.614A21.016,21.016,0,0,1,18,25ZM7.171,38.837A4.006,4.006,0,0,1,10,32H35.682A6.945,6.945,0,0,0,35,35H10v2H35.084a5.842,5.842,0,0,0,.51,1.58A2,2,0,0,0,35,40H10A4.006,4.006,0,0,1,7.171,38.837Zm7,10A4.006,4.006,0,0,1,17,42H35.278A1.993,1.993,0,0,0,37,43h1.08a6.937,6.937,0,0,0,.605,2H17v2H40.111a7.051,7.051,0,0,0,1.3,1H41a12.9,12.9,0,0,0-6.9,2H17A4.006,4.006,0,0,1,14.171,48.837Zm-9,10A4.006,4.006,0,0,1,8,52H31.641a13.065,13.065,0,0,0-2.162,3H8v2H28.636a12.89,12.89,0,0,0-.585,3H8A4.006,4.006,0,0,1,5.171,58.837ZM30.045,60a11.012,11.012,0,0,1,10.1-9.959l1.1,7.112a1,1,0,0,0,.988.847h5.518a1,1,0,0,0,.988-.847l1.1-7.112A11.012,11.012,0,0,1,59.955,60Z"/><path d="M39,26H49V24H40V11H38V25A1,1,0,0,0,39,26Z"/></g></svg>
